<mxfile host="65bd71144e">
    <diagram id="pzS8XKnFLnIYKVAa27eD" name="第 1 页">
        <mxGraphModel dx="567" dy="427" grid="1" gridSize="10" guides="1" tooltips="1" connect="1" arrows="1" fold="1" page="1" pageScale="1" pageWidth="827" pageHeight="1169" math="0" shadow="0">
            <root>
                <mxCell id="0"/>
                <mxCell id="1" parent="0"/>
                <mxCell id="42" value="" style="group" vertex="1" connectable="0" parent="1">
                    <mxGeometry x="190" y="130" width="200" height="130" as="geometry"/>
                </mxCell>
                <mxCell id="3" value="" style="ellipse;whiteSpace=wrap;html=1;" vertex="1" parent="42">
                    <mxGeometry width="90" height="40" as="geometry"/>
                </mxCell>
                <mxCell id="4" value="联系1" style="rhombus;" vertex="1" parent="42">
                    <mxGeometry x="55" y="60" width="90" height="70" as="geometry"/>
                </mxCell>
                <mxCell id="5" value="" style="ellipse;whiteSpace=wrap;html=1;" vertex="1" parent="42">
                    <mxGeometry x="110" width="90" height="40" as="geometry"/>
                </mxCell>
            </root>
        </mxGraphModel>
    </diagram>
</mxfile>